<svg xmlns="http://www.w3.org/2000/svg" x="0px" y="0px" width="100" height="100" viewBox="0,0,256,256">
<g fill-opacity="0.34118" fill="#000000" fill-rule="nonzero" stroke="none" stroke-width="1" stroke-linecap="butt" stroke-linejoin="miter" stroke-miterlimit="10" stroke-dasharray="" stroke-dashoffset="0" font-family="none" font-weight="none" font-size="none" text-anchor="none" style="mix-blend-mode: normal"><g transform="scale(5.12,5.12)"><path d="M19.875,4.40625c-3.67969,0.06641 -6.36719,1.16406 -8,3.3125c-1.93359,2.54688 -2.28516,6.42578 -1.0625,11.5c-0.44922,0.55078 -0.78906,1.38672 -0.65625,2.5c0.26563,2.20313 1.12109,3.10938 1.84375,3.46875c0.34375,1.73047 1.30078,3.67578 2.21875,4.59375v0.46875c0.00781,1.01563 0.00391,1.89453 -0.09375,3.03125c-0.61328,1.40625 -2.65234,2.23047 -5,3.15625c-3.90625,1.53516 -8.76172,3.43359 -9.125,9.5l-0.0625,1.0625h40.125l-0.0625,-1.0625c-0.10547,-1.76953 -0.60937,-3.1875 -1.34375,-4.34375h11.40625l-0.0625,-1.0625c-0.12891,-2.12891 -0.96094,-3.78516 -2.125,-4.96875c-1.16406,-1.18359 -2.62109,-1.92187 -4.03125,-2.53125c-1.41016,-0.60937 -2.79297,-1.06641 -3.84375,-1.59375c-1.01562,-0.50781 -1.58984,-1.01953 -1.84375,-1.625c-0.08203,-1.05078 -0.10156,-1.90625 -0.09375,-2.90625c0.09766,-0.10937 0.25391,-0.1875 0.34375,-0.3125c0.23828,-0.32812 0.47656,-0.72656 0.6875,-1.15625c0.35547,-0.73047 0.59766,-1.59375 0.75,-2.46875c0.26172,-0.14453 0.53906,-0.16797 0.75,-0.4375c0.42969,-0.54687 0.71484,-1.28906 0.84375,-2.34375v-0.03125c0.10938,-0.91406 -0.1875,-1.52734 -0.5625,-2.03125c0.41406,-1.35547 0.92188,-3.49219 0.75,-5.71875c-0.09766,-1.22656 -0.40625,-2.46484 -1.15625,-3.5c-0.71094,-0.98437 -1.875,-1.70703 -3.34375,-1.96875c-0.95312,-1.05859 -2.45703,-1.53125 -4.21875,-1.53125c-2.40625,0.04297 -4.28125,0.62891 -5.65625,1.6875c-0.62891,-0.40625 -1.36719,-0.71094 -2.1875,-0.875c-0.94531,-1.19141 -2.75781,-1.8125 -5.1875,-1.8125zM32.90625,7.40625c0.01172,0 0.01953,0 0.03125,0c1.66406,0.00781 2.70313,0.5 2.96875,0.96875l0.25,0.40625l0.46875,0.09375c1.13672,0.15625 1.76953,0.56641 2.21875,1.1875c0.44922,0.62109 0.70313,1.50781 0.78125,2.5c0.15625,1.98438 -0.42187,4.34766 -0.78125,5.4375l-0.25,0.75l0.6875,0.40625c-0.08984,-0.05469 0.26563,0.13672 0.1875,0.78125c-0.09766,0.80859 -0.30859,1.21094 -0.4375,1.375c-0.12891,0.16406 -0.16016,0.12891 -0.125,0.125l-0.84375,0.0625l-0.0625,0.8125c-0.07422,0.70313 -0.38672,1.56641 -0.71875,2.25c-0.16797,0.33984 -0.32031,0.64063 -0.46875,0.84375c-0.08984,0.12109 -0.15234,0.21094 -0.1875,0.25h-0.03125c-0.00391,0.00391 0,0.03125 0,0.03125l-0.53125,0.25v0.59375c0,1.21484 -0.03516,2.23438 0.09375,3.65625v0.125l0.0625,0.125c0.50391,1.34766 1.66797,2.16016 2.90625,2.78125c1.23828,0.62109 2.625,1.08984 3.9375,1.65625c1.3125,0.56641 2.50391,1.21094 3.375,2.09375c0.65625,0.66797 1.06641,1.55469 1.3125,2.625h-10.84375c-1.76562,-1.49609 -4.00391,-2.36719 -6,-3.15625c-2.33984,-0.92578 -4.38672,-1.75 -5,-3.15625c-0.09766,-1.13281 -0.07031,-2.01953 -0.0625,-3.03125v-0.46875c0.89453,-0.91406 1.81641,-2.86328 2.15625,-4.59375c0.72266,-0.35937 1.57813,-1.26562 1.84375,-3.46875c0.13281,-1.08984 -0.1875,-1.91797 -0.625,-2.46875c0.58203,-1.98047 1.76953,-7.13672 -0.28125,-10.4375c-0.07422,-0.11719 -0.16797,-0.19922 -0.25,-0.3125c0.94531,-0.64062 2.28906,-1.05469 4.21875,-1.09375z"></path></g></g>
</svg>