<svg xmlns="http://www.w3.org/2000/svg" x="0px" y="0px" width="25" height="25" viewBox="0,0,256,256">
<g fill="none" fill-rule="nonzero" stroke="none" stroke-width="none" stroke-linecap="butt" stroke-linejoin="none" stroke-miterlimit="10" stroke-dasharray="" stroke-dashoffset="0" font-family="none" font-weight="none" font-size="none" text-anchor="none" style="mix-blend-mode: normal"><path transform="scale(5.33333,5.33333)" d="M40.87662,8.20245c0.31683,0.76204 0.13312,1.64043 -0.46256,2.21161l-13.58594,13.58594l13.58594,13.58594c0.52248,0.50163 0.73295,1.24653 0.55024,1.94742c-0.18271,0.70088 -0.73006,1.24823 -1.43094,1.43094c-0.70088,0.18271 -1.44578,-0.02776 -1.94742,-0.55024l-13.58594,-13.58594l-13.58594,13.58594c-0.50163,0.52248 -1.24653,0.73294 -1.94741,0.55023c-0.70088,-0.18271 -1.24823,-0.73006 -1.43094,-1.43094c-0.18271,-0.70088 0.02775,-1.44578 0.55023,-1.94741l13.58594,-13.58594l-13.58594,-13.58594c-0.58297,-0.56738 -0.76424,-1.4313 -0.4585,-2.18515c0.30574,-0.75385 1.03759,-1.24744 1.85108,-1.24844c0.54068,-0.0005 1.05853,0.21792 1.43555,0.60547l13.58594,13.58594l13.58594,-13.58594c0.3659,-0.38157 0.86798,-0.60276 1.39648,-0.61523c0.82505,-0.0195 1.57737,0.46971 1.8942,1.23175z" id="strokeMainSVG" fill="#dddddd" stroke="#dddddd" stroke-width="4" stroke-linejoin="round"></path><g transform="scale(5.33333,5.33333)" fill-opacity="0.61176" fill="#000000" stroke="none" stroke-width="1" stroke-linejoin="miter"><path d="M38.98242,6.9707c-0.52851,0.01247 -1.03058,0.23367 -1.39648,0.61523l-13.58594,13.58594l-13.58594,-13.58594c-0.37701,-0.38755 -0.89487,-0.60596 -1.43555,-0.60547c-0.81349,0.00101 -1.54534,0.49459 -1.85108,1.24844c-0.30574,0.75385 -0.12447,1.61777 0.4585,2.18515l13.58594,13.58594l-13.58594,13.58594c-0.52248,0.50163 -0.73294,1.24653 -0.55023,1.94741c0.18271,0.70088 0.73006,1.24823 1.43094,1.43094c0.70088,0.18271 1.44578,-0.02775 1.94741,-0.55023l13.58594,-13.58594l13.58594,13.58594c0.50163,0.52248 1.24653,0.73295 1.94742,0.55024c0.70088,-0.18271 1.24823,-0.73006 1.43094,-1.43094c0.18271,-0.70088 -0.02776,-1.44578 -0.55024,-1.94742l-13.58594,-13.58594l13.58594,-13.58594c0.59567,-0.57119 0.77939,-1.44958 0.46256,-2.21161c-0.31683,-0.76204 -1.06915,-1.25125 -1.8942,-1.23175z"></path></g></g>
</svg>