<svg xmlns="http://www.w3.org/2000/svg" width="25" height="24" viewBox="0 0 25 24" fill="none">
  <path d="M5.40652 18C4.54457 18 3.71792 17.6576 3.10843 17.0481C2.49893 16.4386 2.15652 15.612 2.15652 14.75V6.25C2.15652 5.38805 2.49893 4.5614 3.10843 3.9519C3.71792 3.34241 4.54457 3 5.40652 3H18.9065C19.3333 3 19.7559 3.08406 20.1502 3.24739C20.5446 3.41072 20.9028 3.65011 21.2046 3.9519C21.5064 4.25369 21.7458 4.61197 21.9091 5.00628C22.0725 5.40059 22.1565 5.8232 22.1565 6.25V14.75C22.1565 15.1768 22.0725 15.5994 21.9091 15.9937C21.7458 16.388 21.5064 16.7463 21.2046 17.0481C20.9028 17.3499 20.5446 17.5893 20.1502 17.7526C19.7559 17.9159 19.3333 18 18.9065 18H13.1685L8.15652 21.75C7.97081 21.889 7.75008 21.9736 7.51903 21.9943C7.28799 22.015 7.05574 21.971 6.84828 21.8672C6.64082 21.7634 6.46634 21.6039 6.34434 21.4066C6.22235 21.2093 6.15766 20.982 6.15752 20.75V18H5.40752H5.40652ZM12.6705 16.5H18.9065C19.3707 16.5 19.8158 16.3156 20.144 15.9874C20.4721 15.6592 20.6565 15.2141 20.6565 14.75V6.25C20.6565 5.78587 20.4721 5.34075 20.144 5.01256C19.8158 4.68437 19.3707 4.5 18.9065 4.5H5.40652C4.9424 4.5 4.49728 4.68437 4.16909 5.01256C3.8409 5.34075 3.65652 5.78587 3.65652 6.25V14.75C3.65652 15.716 4.44052 16.5 5.40652 16.5H7.65552V20.25L12.6705 16.5Z" fill="#536471"/>
</svg>