<svg xmlns="http://www.w3.org/2000/svg" x="0px" y="0px" width="100" height="100" viewBox="0,0,256,256">
<g fill="none" fill-rule="nonzero" stroke="none" stroke-width="none" stroke-linecap="butt" stroke-linejoin="none" stroke-miterlimit="10" stroke-dasharray="" stroke-dashoffset="0" font-family="none" font-weight="none" font-size="none" text-anchor="none" style="mix-blend-mode: normal"><path transform="scale(10.24,10.24)" d="M22.85,11.08c-0.09233,0.12182 -0.23716,0.19238 -0.39,0.19c-0.11265,-0.00142 -0.22165,-0.0401 -0.31,-0.11l-1.15,-0.92v9.84c-0.00791,0.71079 -0.29789,1.38933 -0.80612,1.88631c-0.50823,0.49698 -1.19309,0.77169 -1.90388,0.76369h-3.29v-5.49c0.00525,-0.67119 -0.25331,-1.31759 -0.72,-1.8c-0.46319,-0.48789 -1.10727,-0.76288 -1.78,-0.76c-0.67101,0.00791 -1.3114,0.28208 -1.78025,0.76218c-0.46885,0.4801 -0.72776,1.12681 -0.71975,1.79782v5.49h-3.27c-0.71346,0.01069 -1.40193,-0.26252 -1.91392,-0.75951c-0.51199,-0.49699 -0.80555,-1.17703 -0.81608,-1.89049v-9.85l-1.16,0.93c-0.21627,0.14376 -0.5066,0.09802 -0.6682,-0.10528c-0.16159,-0.2033 -0.14065,-0.49646 0.0482,-0.67472l10,-8c0.17895,-0.15137 0.44105,-0.15137 0.62,0l10,8c0.19338,0.19169 0.19782,0.50287 0.01,0.7z" id="strokeMainSVG" fill="#dddddd" stroke="#dddddd" stroke-width="2" stroke-linejoin="round"></path><g transform="scale(10.24,10.24)" fill="#339af0" stroke="none" stroke-width="1" stroke-linejoin="miter"><path d="M22.85,11.08c-0.09233,0.12182 -0.23716,0.19238 -0.39,0.19c-0.11265,-0.00142 -0.22165,-0.0401 -0.31,-0.11l-1.15,-0.92v9.84c-0.00791,0.71079 -0.29789,1.38933 -0.80612,1.88631c-0.50823,0.49698 -1.19309,0.77169 -1.90388,0.76369h-3.29v-5.49c0.00525,-0.67119 -0.25331,-1.31759 -0.72,-1.8c-0.46319,-0.48789 -1.10727,-0.76288 -1.78,-0.76c-0.67101,0.00791 -1.3114,0.28208 -1.78025,0.76218c-0.46885,0.4801 -0.72776,1.12681 -0.71975,1.79782v5.49h-3.27c-0.71346,0.01069 -1.40193,-0.26252 -1.91392,-0.75951c-0.51199,-0.49699 -0.80555,-1.17703 -0.81608,-1.89049v-9.85l-1.16,0.93c-0.21627,0.14376 -0.5066,0.09802 -0.6682,-0.10528c-0.16159,-0.2033 -0.14065,-0.49646 0.0482,-0.67472l10,-8c0.17895,-0.15137 0.44105,-0.15137 0.62,0l10,8c0.19338,0.19169 0.19782,0.50287 0.01,0.7z"></path></g></g>
</svg>