<svg xmlns="http://www.w3.org/2000/svg" width="32" height="32" viewBox="0 0 32 32" fill="none">
  <path fill-rule="evenodd" clip-rule="evenodd" d="M21.7747 22.0943L26.3371 16.7966C26.555 16.5492 26.6665 16.237 26.6666 15.9231C26.6667 15.7083 26.6147 15.4928 26.5091 15.2967C26.4621 15.2093 26.4047 15.1263 26.3371 15.0496L21.7747 9.75181C21.2955 9.19537 20.4538 9.13089 19.8947 9.60778C19.3356 10.0847 19.2708 10.9224 19.75 11.4788L22.4345 14.5961L12.1083 14.5961C11.3719 14.5961 10.775 15.1901 10.775 15.923C10.775 16.6558 11.3719 17.2499 12.1083 17.2499L22.4347 17.2499L19.75 20.3674C19.2708 20.9238 19.3356 21.7615 19.8947 22.2384C20.4538 22.7153 21.2955 22.6508 21.7747 22.0943ZM13.3333 7.96143C14.0697 7.96143 14.6666 8.55552 14.6666 9.28836L14.6666 11.2787C14.6666 12.0116 15.2636 12.6057 16 12.6057C16.7363 12.6057 17.3333 12.0116 17.3333 11.2787L17.3333 9.28836C17.3333 7.08984 15.5424 5.30759 13.3333 5.30759L9.33329 5.30759C7.12415 5.30759 5.33329 7.08984 5.33329 9.28836L5.33329 22.5576C5.33329 24.7561 7.12415 26.5384 9.33329 26.5384L13.3333 26.5384C15.5424 26.5384 17.3333 24.7561 17.3333 22.5576L17.3333 20.5672C17.3333 19.8344 16.7363 19.2403 16 19.2403C15.2636 19.2403 14.6666 19.8344 14.6666 20.5672L14.6666 22.5576C14.6666 23.2904 14.0697 23.8845 13.3333 23.8845L9.33329 23.8845C8.59691 23.8845 7.99996 23.2904 7.99996 22.5576L7.99996 9.28836C7.99996 8.55552 8.59691 7.96143 9.33329 7.96143L13.3333 7.96143Z" fill="#737791"/>
</svg>